<?xml version="1.0" encoding="UTF-8" standalone="no"?>
<svg xmlns:xlink="http://www.w3.org/1999/xlink" xmlns="http://www.w3.org/2000/svg" xmlns:svg="http://www.w3.org/2000/svg" width="105.23441mm" height="72.309822mm" viewBox="0 0 397.73634 273.29697" version="1.1" id="svg1" xml:space="preserve">
  <defs id="defs1">
    <linearGradient id="linearGradient196">
      <stop style="stop-color:#41c0a8;stop-opacity:1;" offset="0" id="stop193"></stop>
      <stop style="stop-color:#4d99af;stop-opacity:1;" offset="0.23752645" id="stop194"></stop>
      <stop style="stop-color:#4a549b;stop-opacity:1;" offset="0.61011696" id="stop195"></stop>
      <stop style="stop-color:#38296f;stop-opacity:1;" offset="0.72798842" id="stop196"></stop>
    </linearGradient>
    <linearGradient id="linearGradient164">
      <stop style="stop-color:#5164ac;stop-opacity:1;" offset="0.14111114" id="stop162"></stop>
      <stop style="stop-color:#44468d;stop-opacity:1;" offset="0.3790082" id="stop163"></stop>
      <stop style="stop-color:#38296f;stop-opacity:1;" offset="0.58761871" id="stop166"></stop>
      <stop style="stop-color:#44468d;stop-opacity:1;" offset="0.8113938" id="stop167"></stop>
      <stop style="stop-color:#5164ac;stop-opacity:1;" offset="1" id="stop164"></stop>
    </linearGradient>
    <linearGradient id="linearGradient144">
      <stop style="stop-color:#41c0a8;stop-opacity:1;" offset="0" id="stop145"></stop>
      <stop style="stop-color:#4d99af;stop-opacity:1;" offset="0.34733728" id="stop154"></stop>
      <stop style="stop-color:#4a549b;stop-opacity:1;" offset="0.64261842" id="stop144"></stop>
    </linearGradient>
    <linearGradient id="linearGradient134">
      <stop style="stop-color:#5164ac;stop-opacity:1;" offset="0.20118195" id="stop134"></stop>
      <stop style="stop-color:#44468d;stop-opacity:1;" offset="0.75956285" id="stop146"></stop>
      <stop style="stop-color:#38296f;stop-opacity:1;" offset="1" id="stop135"></stop>
    </linearGradient>
    <radialGradient xlink:href="#linearGradient134" id="radialGradient135-6" cx="-489.64624" cy="106.54659" fx="-489.64624" fy="106.54659" r="45.926991" gradientTransform="matrix(1.8592353,-0.19411148,0.12708062,1.2172015,406.04653,-116.37992)" gradientUnits="userSpaceOnUse"></radialGradient>
    <radialGradient xlink:href="#linearGradient144" id="radialGradient154-2" cx="-267.20883" cy="167.6738" fx="-267.20883" fy="167.6738" r="33.24707" gradientTransform="matrix(0.79703438,-1.6262416,1.8090982,0.88665398,-564.62401,-445.38727)" gradientUnits="userSpaceOnUse"></radialGradient>
    <linearGradient xlink:href="#linearGradient164" id="linearGradient170" gradientUnits="userSpaceOnUse" x1="-483.866" y1="104.24624" x2="-503.54312" y2="146.05841" spreadMethod="pad"></linearGradient>
    <radialGradient xlink:href="#linearGradient196" id="radialGradient193" cx="-172.71407" cy="801.65869" fx="-172.71407" fy="801.65869" r="59.574219" gradientTransform="matrix(-0.24529503,-4.2831789,6.1953276,-0.35501503,-5256.0393,376.25979)" gradientUnits="userSpaceOnUse"></radialGradient>
  </defs>
  <g id="layer1" style="display:inline" transform="translate(970.64421,-597.84967)">
    <g id="g200" transform="translate(-485.6442,-43.15035)">
      <path id="path191" style="fill:url(#radialGradient193);fill-opacity:1;stroke-width:1.33333" d="m -220.08594,641.00002 -28.13868,7.24804 V 792.2715 c 0,3.684 2.98397,6.66993 6.66797,6.66993 h 21.47071 z m -264.91407,3.8125 v 147.03125 c 0,3.921 3.17766,7.09766 7.09766,7.09766 h 112.05078 l -16.01563,-28.3418 h -70.67773 c -1.4414,0 -2.61133,-1.16933 -2.61133,-2.61133 v -35.36719 h 49.88281 v -26.63672 h -49.88281 v -32.83008 h 67.16992 v -28.34179 z m 335.7793,46.35742 c -3.176,0 -6.29872,0.2617 -9.32812,0.8457 -13.6426,2.63 -22.65446,8.48156 -29.28516,15.60156 -3.2306,3.137 -5.96183,6.74561 -8.17383,10.84961 -4.3374,8.027 -6.5,17.65582 -6.5,28.88282 0,16.914 4.86166,30.16476 14.59766,39.75976 9.7374,9.588 23.27393,14.38477 40.61523,14.38477 11.5107,0 20.15174,-2.167 28.39844,-6.5 8.24,-4.335 14.56541,-10.51488 18.970706,-18.54688 4.4053,-8.028 6.611329,-17.72365 6.611329,-29.09765 0,-5.272 -0.475828,-10.19019 -1.423828,-14.74219 l 7.474609,-19.55664 c 0,0 -33.011636,-21.87886 -61.957036,-21.88086 z m 1.92578,26.97656 c 8.24,0 14.67047,2.59335 19.28907,7.77735 4.6187,5.192 6.92773,12.33478 6.92773,21.42578 0,6.114 -1.06126,11.33397 -3.19726,15.66797 -2.132,4.338 -5.14995,7.67648 -9.06055,10.02148 -3.9067,2.345 -8.56169,3.51563 -13.95899,3.51563 -8.2467,0 -14.67622,-2.5913 -19.29492,-7.7793 -4.6186,-5.189 -6.92969,-12.32978 -6.92969,-21.42578 0,-6.11 1.02845,-11.33397 3.09375,-15.66797 1.46,-3.075 3.39437,-5.64185 5.78907,-7.71485 2.616,-1.949 5.44281,-3.43617 8.35351,-4.57617 2.7146,-0.823 5.70428,-1.24414 8.98828,-1.24414 z"></path>
      <g id="g154-8" style="display:inline" transform="matrix(1.7351017,0,0,1.7351017,525.2477,624.377)">
        <path d="m -470.26368,38.322267 c 0,0 -9.90758,24.916936 -18.72266,47.089844 l -17.49414,-32.34961 h -18.10547 l 27.92969,51.644529 c -1.28658,3.23619 -2.42004,6.08784 -3.33399,8.38672 -0.33029,0.83081 -0.65797,1.66511 -0.98046,2.49805 -8.8851,-2.99033 -18.12339,-4.43847 -25.83594,-2.04492 -23.09164,7.16637 -24.38871,45.71527 -4.05274,52.11914 19.59509,6.17057 30.14578,-8.43061 39.21485,-29.66602 9.60262,5.07178 17.56054,10.44727 17.56054,10.44727 l 7.14258,-12.79688 c 0,0 -8.13393,-6.03151 -19.15234,-11.67578 2.88119,-7.67566 5.77277,-15.74856 8.94141,-23.718748 l 23.82617,-59.933595 z m -46.7793,88.857423 c 3.06077,-0.0444 6.81208,0.83557 10.81055,2.24023 -4.83869,12.32279 -9.69793,21.82243 -17.20899,20.48633 -10.64664,-1.89387 -7.72882,-22.52182 6.39844,-22.72656 z" style="display:inline;vector-effect:non-scaling-stroke;fill:url(#radialGradient135-6);fill-opacity:1;stroke:none;-inkscape-stroke:hairline" id="path118-1"></path>
        <path d="m -474.11135,90.607426 c -5.92168,0.977589 -12.24629,2.022353 -18.13085,2.996094 l -4.41407,11.10351 c -1.28658,3.23619 -2.42004,6.08784 -3.33398,8.38672 -0.3303,0.83081 -0.65602,1.66511 -0.97852,2.49805 -1.82994,4.72631 -3.54636,9.45461 -5.26367,13.82812 -2.05261,5.22744 -4.10838,9.94705 -6.36914,13.54688 l 11.47461,11.02344 c 3.48367,-4.99209 6.56176,-11.14687 9.48437,-17.99024 1.89176,-4.42958 3.71752,-9.14667 5.54883,-14.02539 2.8812,-7.67566 5.77278,-15.74856 8.94141,-23.718746 z" style="display:inline;mix-blend-mode:darken;vector-effect:non-scaling-stroke;fill:url(#linearGradient170);fill-opacity:1;stroke:none;-inkscape-stroke:hairline" id="path137-5"></path>
        <path d="m -517.584,112.35351 c -3.22258,-0.0616 -6.33045,0.29578 -9.22266,1.19336 -2.45599,0.76221 -4.66578,1.87961 -6.6289,3.27539 4.07744,2.74249 7.66086,6.60222 10.11328,12.07617 1.75432,-1.04377 3.85213,-1.68159 6.28125,-1.71679 3.06077,-0.0444 6.81013,0.83361 10.80859,2.23828 4.76103,1.67256 9.87261,4.08963 14.58789,6.58008 9.60262,5.07177 17.56055,10.44726 17.56055,10.44726 l 7.14258,-12.79687 c 0,0 -8.13394,-6.03152 -19.15234,-11.67578 -4.58525,-2.34883 -9.66869,-4.6306 -14.875,-6.38282 -5.55319,-1.86895 -11.24427,-3.13556 -16.61524,-3.23828 z" style="vector-effect:non-scaling-stroke;fill:url(#radialGradient154-2);stroke:none;-inkscape-stroke:hairline" id="path153-5"></path>
      </g>
    </g>
  </g>
</svg>
